<svg width="134" height="32" viewBox="0 0 134 32" fill="none" xmlns="http://www.w3.org/2000/svg">
<path d="M21.7202 11.3125C21.6444 10.6212 21.4834 10.0104 21.2372 9.48011C21.0005 8.94034 20.6738 8.4858 20.2571 8.11648C19.8404 7.73769 19.3338 7.44886 18.7372 7.25C18.1406 7.05114 17.4493 6.9517 16.6634 6.9517C15.1766 6.9517 13.7846 7.32102 12.4872 8.05966C11.1993 8.79829 10.1009 9.87311 9.19176 11.2841C8.28267 12.6856 7.66241 14.3996 7.33097 16.4261C6.99006 18.4527 6.99006 20.1761 7.33097 21.5966C7.68134 23.017 8.33949 24.1013 9.3054 24.8494C10.2808 25.5881 11.5355 25.9574 13.0696 25.9574C14.4616 25.9574 15.7116 25.7112 16.8196 25.2188C17.9276 24.7169 18.8319 24.0114 19.5327 23.1023C20.2429 22.1932 20.6974 21.1184 20.8963 19.8778L22.1179 20.0625H14.6321L15.3991 15.4318H27.5724L26.9474 19.0966C26.5402 21.6534 25.6454 23.8504 24.2628 25.6875C22.8802 27.5246 21.1567 28.9356 19.0923 29.9205C17.0374 30.9053 14.7836 31.3977 12.331 31.3977C9.60369 31.3977 7.30729 30.7964 5.44176 29.5938C3.5857 28.3816 2.26468 26.6629 1.47869 24.4375C0.702178 22.2027 0.564867 19.5511 1.06676 16.483C1.45502 14.125 2.14631 12.0227 3.14062 10.1761C4.14441 8.32008 5.37074 6.74811 6.8196 5.46023C8.26847 4.17235 9.87358 3.19223 11.6349 2.51989C13.4058 1.84754 15.2476 1.51136 17.1605 1.51136C18.8082 1.51136 20.2997 1.75284 21.6349 2.2358C22.9796 2.70928 24.1302 3.38163 25.0866 4.25284C26.0526 5.12405 26.7817 6.16098 27.2741 7.36364C27.776 8.55682 28.0081 9.87311 27.9702 11.3125H21.7202ZM30.8466 31L34.483 9.18182H40.5341L36.8977 31H30.8466ZM38.1335 6.34091C37.2339 6.34091 36.4905 6.04261 35.9034 5.44602C35.3258 4.83996 35.089 4.12026 35.1932 3.28693C35.2973 2.43466 35.7045 1.71496 36.4148 1.12784C37.125 0.531248 37.9299 0.232953 38.8295 0.232953C39.7292 0.232953 40.4631 0.531248 41.0312 1.12784C41.5994 1.71496 41.8362 2.43466 41.7415 3.28693C41.6468 4.12026 41.2443 4.83996 40.5341 5.44602C39.8333 6.04261 39.0331 6.34091 38.1335 6.34091ZM51.1165 31L55.946 1.90909H67.4233C69.6203 1.90909 71.4242 2.33049 72.8352 3.1733C74.2557 4.00663 75.25 5.16667 75.8182 6.65341C76.3958 8.13068 76.5284 9.83523 76.2159 11.767C75.8939 13.7083 75.1932 15.4176 74.1136 16.8949C73.0436 18.3627 71.6515 19.5085 69.9375 20.3324C68.2235 21.1562 66.2443 21.5682 64 21.5682H56.6847L57.4943 16.6392H63.8153C65.0085 16.6392 66.0265 16.4356 66.8693 16.0284C67.7216 15.6117 68.3987 15.0388 68.9006 14.3097C69.4025 13.571 69.7292 12.7235 69.8807 11.767C70.0417 10.7917 69.9896 9.94413 69.7244 9.22443C69.4593 8.50473 68.9716 7.94602 68.2614 7.5483C67.5606 7.1411 66.6184 6.9375 65.4347 6.9375H61.2869L57.267 31H51.1165ZM87.782 1.90909L82.9524 31H76.9013L81.7308 1.90909H87.782ZM103.339 21.7102L105.428 9.18182H111.479L107.842 31H102.033L102.686 27.0369H102.459C101.786 28.3153 100.806 29.3428 99.5185 30.1193C98.2306 30.8958 96.7675 31.2841 95.1293 31.2841C93.6709 31.2841 92.4399 30.9527 91.4361 30.2898C90.4418 29.6269 89.7363 28.6847 89.3196 27.4631C88.9029 26.2415 88.8319 24.7784 89.1065 23.0739L91.4361 9.18182H97.4872L95.3565 21.9943C95.1577 23.2822 95.3376 24.3002 95.8963 25.0483C96.455 25.7964 97.3073 26.1705 98.4531 26.1705C99.1823 26.1705 99.8878 26.0047 100.57 25.6733C101.261 25.3324 101.857 24.8305 102.359 24.1676C102.861 23.5047 103.188 22.6856 103.339 21.7102ZM133.407 15.4034L127.91 15.7443C127.881 15.2614 127.749 14.8305 127.512 14.4517C127.285 14.0634 126.949 13.7557 126.504 13.5284C126.068 13.3011 125.519 13.1875 124.856 13.1875C123.862 13.1875 122.976 13.4148 122.2 13.8693C121.423 14.3239 120.983 14.9062 120.879 15.6165C120.793 16.071 120.912 16.4545 121.234 16.767C121.556 17.0795 122.204 17.3447 123.18 17.5625L127.015 18.358C129.06 18.7936 130.538 19.518 131.447 20.5312C132.365 21.5445 132.692 22.8703 132.427 24.5085C132.19 25.9006 131.579 27.1174 130.594 28.1591C129.61 29.1913 128.36 29.9962 126.844 30.5739C125.329 31.142 123.648 31.4261 121.802 31.4261C118.838 31.4261 116.584 30.8201 115.04 29.608C113.497 28.3958 112.754 26.7528 112.81 24.679L118.719 24.3665C118.767 25.2566 119.079 25.929 119.657 26.3835C120.235 26.8286 121.025 27.0559 122.029 27.0653C123.156 27.0843 124.112 26.8523 124.898 26.3693C125.694 25.8769 126.144 25.2803 126.248 24.5795C126.324 24.0871 126.182 23.6894 125.822 23.3864C125.471 23.0833 124.827 22.8324 123.89 22.6335L120.254 21.8807C118.189 21.4545 116.707 20.6922 115.808 19.5938C114.908 18.4953 114.6 17.0985 114.884 15.4034C115.112 14.0492 115.675 12.8892 116.575 11.9233C117.484 10.9479 118.653 10.1998 120.083 9.67898C121.522 9.15814 123.147 8.89773 124.955 8.89773C127.787 8.89773 129.917 9.48011 131.347 10.6449C132.787 11.8097 133.473 13.3958 133.407 15.4034Z" fill="#16CA06"/>
</svg>
